<svg width="9" height="38" viewBox="0 0 9 38" fill="none" xmlns="http://www.w3.org/2000/svg">
<path d="M0.432 0.599998H8.128L6.828 24.936H1.68L0.432 0.599998ZM4.28 37.364C3.06667 37.364 2.06133 36.9827 1.264 36.22C0.466667 35.4227 0.0680002 34.452 0.0680002 33.308C0.0680002 32.164 0.466667 31.2107 1.264 30.448C2.06133 29.6853 3.06667 29.304 4.28 29.304C5.45867 29.304 6.42933 29.6853 7.192 30.448C7.98933 31.2107 8.388 32.164 8.388 33.308C8.388 34.452 7.98933 35.4227 7.192 36.22C6.42933 36.9827 5.45867 37.364 4.28 37.364Z" fill="#8A8E97"/>
</svg>
