<svg width="189" height="41" viewBox="0 0 189 41" fill="none" xmlns="http://www.w3.org/2000/svg">
<path d="M34.582 14.104V15H27.652V5.2H34.372V6.096H28.688V9.582H33.756V10.464H28.688V14.104H34.582ZM39.3165 11.724H37.6365V15H36.6425V7.636H37.6365V10.87H39.3305L41.9205 7.636H42.9985L40.1005 11.206L43.2085 15H42.0325L39.3165 11.724ZM47.1746 7.58C48.1359 7.58 48.8732 7.82267 49.3866 8.308C49.8999 8.784 50.1566 9.49333 50.1566 10.436V15H49.2046V13.852C48.9806 14.2347 48.6492 14.5333 48.2106 14.748C47.7812 14.9627 47.2679 15.07 46.6706 15.07C45.8492 15.07 45.1959 14.874 44.7106 14.482C44.2252 14.09 43.9826 13.572 43.9826 12.928C43.9826 12.3027 44.2066 11.7987 44.6546 11.416C45.1119 11.0333 45.8352 10.842 46.8246 10.842H49.1626V10.394C49.1626 9.75933 48.9852 9.27867 48.6306 8.952C48.2759 8.616 47.7579 8.448 47.0766 8.448C46.6099 8.448 46.1619 8.52733 45.7326 8.686C45.3032 8.83533 44.9346 9.04533 44.6266 9.316L44.1786 8.574C44.5519 8.25667 44.9999 8.014 45.5226 7.846C46.0452 7.66867 46.5959 7.58 47.1746 7.58ZM46.8246 14.286C47.3846 14.286 47.8652 14.16 48.2666 13.908C48.6679 13.6467 48.9666 13.2733 49.1626 12.788V11.584H46.8526C45.5926 11.584 44.9626 12.0227 44.9626 12.9C44.9626 13.3293 45.1259 13.67 45.4526 13.922C45.7792 14.1647 46.2366 14.286 46.8246 14.286ZM57.9827 8.518H55.1967V15H54.2027V8.518H51.4167V7.636H57.9827V8.518ZM65.5181 11.626H59.3581C59.4141 12.3913 59.7081 13.012 60.2401 13.488C60.7721 13.9547 61.4441 14.188 62.2561 14.188C62.7134 14.188 63.1334 14.1087 63.5161 13.95C63.8987 13.782 64.2301 13.5393 64.5101 13.222L65.0701 13.866C64.7434 14.258 64.3327 14.5567 63.8381 14.762C63.3527 14.9673 62.8161 15.07 62.2281 15.07C61.4721 15.07 60.8001 14.9113 60.2121 14.594C59.6334 14.2673 59.1807 13.8193 58.8541 13.25C58.5274 12.6807 58.3641 12.0367 58.3641 11.318C58.3641 10.5993 58.5181 9.95533 58.8261 9.386C59.1434 8.81667 59.5727 8.37333 60.1141 8.056C60.6647 7.73867 61.2807 7.58 61.9621 7.58C62.6434 7.58 63.2547 7.73867 63.7961 8.056C64.3374 8.37333 64.7621 8.81667 65.0701 9.386C65.3781 9.946 65.5321 10.59 65.5321 11.318L65.5181 11.626ZM61.9621 8.434C61.2527 8.434 60.6554 8.66267 60.1701 9.12C59.6941 9.568 59.4234 10.156 59.3581 10.884H64.5801C64.5147 10.156 64.2394 9.568 63.7541 9.12C63.2781 8.66267 62.6807 8.434 61.9621 8.434ZM71.5264 7.58C72.217 7.58 72.8424 7.73867 73.4024 8.056C73.9624 8.364 74.401 8.80267 74.7184 9.372C75.0357 9.94133 75.1944 10.59 75.1944 11.318C75.1944 12.0553 75.0357 12.7087 74.7184 13.278C74.401 13.8473 73.9624 14.2907 73.4024 14.608C72.8517 14.916 72.2264 15.07 71.5264 15.07C70.929 15.07 70.3877 14.9487 69.9024 14.706C69.4264 14.454 69.0344 14.09 68.7264 13.614V17.716H67.7324V7.636H68.6844V9.092C68.983 8.60667 69.375 8.23333 69.8604 7.972C70.355 7.71067 70.9104 7.58 71.5264 7.58ZM71.4564 14.188C71.9697 14.188 72.4364 14.0713 72.8564 13.838C73.2764 13.5953 73.603 13.2547 73.8364 12.816C74.079 12.3773 74.2004 11.878 74.2004 11.318C74.2004 10.758 74.079 10.2633 73.8364 9.834C73.603 9.39533 73.2764 9.05467 72.8564 8.812C72.4364 8.56933 71.9697 8.448 71.4564 8.448C70.9337 8.448 70.4624 8.56933 70.0424 8.812C69.6317 9.05467 69.305 9.39533 69.0624 9.834C68.829 10.2633 68.7124 10.758 68.7124 11.318C68.7124 11.878 68.829 12.3773 69.0624 12.816C69.305 13.2547 69.6317 13.5953 70.0424 13.838C70.4624 14.0713 70.9337 14.188 71.4564 14.188ZM77.33 7.636H78.324V13.488L83.238 7.636H84.12V15H83.126V9.148L78.226 15H77.33V7.636ZM86.9687 7.636H87.9627V10.898H92.5967V7.636H93.5907V15H92.5967V11.752H87.9627V15H86.9687V7.636ZM99.986 7.818C100.667 7.818 101.274 7.972 101.806 8.28C102.347 8.57867 102.767 9.00333 103.066 9.554C103.365 10.0953 103.514 10.716 103.514 11.416C103.514 12.1347 103.355 12.774 103.038 13.334C102.73 13.8847 102.296 14.314 101.736 14.622C101.176 14.93 100.532 15.084 99.804 15.084C98.5813 15.084 97.634 14.6547 96.962 13.796C96.29 12.9373 95.954 11.752 95.954 10.24C95.954 8.66267 96.2526 7.454 96.85 6.614C97.4566 5.774 98.3993 5.20467 99.678 4.906L102.982 4.15L103.15 5.06L100.042 5.774C98.9873 6.00733 98.2126 6.42267 97.718 7.02C97.2233 7.608 96.9526 8.48067 96.906 9.638C97.2046 9.06867 97.62 8.62533 98.152 8.308C98.684 7.98133 99.2953 7.818 99.986 7.818ZM99.832 14.258C100.345 14.258 100.803 14.1413 101.204 13.908C101.615 13.6653 101.932 13.3293 102.156 12.9C102.389 12.4707 102.506 11.9853 102.506 11.444C102.506 10.9027 102.394 10.4267 102.17 10.016C101.946 9.60533 101.629 9.288 101.218 9.064C100.817 8.83067 100.355 8.714 99.832 8.714C99.3093 8.714 98.8426 8.83067 98.432 9.064C98.0306 9.288 97.7133 9.60533 97.48 10.016C97.256 10.4267 97.144 10.9027 97.144 11.444C97.144 11.9853 97.256 12.4707 97.48 12.9C97.7133 13.3293 98.0353 13.6653 98.446 13.908C98.8566 14.1413 99.3186 14.258 99.832 14.258ZM111.697 7.636L108.015 15.882C107.717 16.5727 107.371 17.0627 106.979 17.352C106.587 17.6413 106.116 17.786 105.565 17.786C105.211 17.786 104.879 17.73 104.571 17.618C104.263 17.506 103.997 17.338 103.773 17.114L104.235 16.372C104.609 16.7453 105.057 16.932 105.579 16.932C105.915 16.932 106.2 16.8387 106.433 16.652C106.676 16.4653 106.9 16.148 107.105 15.7L107.427 14.986L104.137 7.636H105.173L107.945 13.894L110.717 7.636H111.697ZM117.04 7.58C117.731 7.58 118.356 7.73867 118.916 8.056C119.476 8.364 119.915 8.80267 120.232 9.372C120.549 9.94133 120.708 10.59 120.708 11.318C120.708 12.0553 120.549 12.7087 120.232 13.278C119.915 13.8473 119.476 14.2907 118.916 14.608C118.365 14.916 117.74 15.07 117.04 15.07C116.443 15.07 115.901 14.9487 115.416 14.706C114.94 14.454 114.548 14.09 114.24 13.614V17.716H113.246V7.636H114.198V9.092C114.497 8.60667 114.889 8.23333 115.374 7.972C115.869 7.71067 116.424 7.58 117.04 7.58ZM116.97 14.188C117.483 14.188 117.95 14.0713 118.37 13.838C118.79 13.5953 119.117 13.2547 119.35 12.816C119.593 12.3773 119.714 11.878 119.714 11.318C119.714 10.758 119.593 10.2633 119.35 9.834C119.117 9.39533 118.79 9.05467 118.37 8.812C117.95 8.56933 117.483 8.448 116.97 8.448C116.447 8.448 115.976 8.56933 115.556 8.812C115.145 9.05467 114.819 9.39533 114.576 9.834C114.343 10.2633 114.226 10.758 114.226 11.318C114.226 11.878 114.343 12.3773 114.576 12.816C114.819 13.2547 115.145 13.5953 115.556 13.838C115.976 14.0713 116.447 14.188 116.97 14.188ZM128.052 8.518H123.838V15H122.844V7.636H128.052V8.518ZM128.943 13.544C129.158 13.544 129.335 13.6187 129.475 13.768C129.615 13.908 129.685 14.0853 129.685 14.3C129.685 14.412 129.667 14.5333 129.629 14.664C129.601 14.7947 129.555 14.944 129.489 15.112L128.901 17.044H128.229L128.705 15.014C128.556 14.9673 128.435 14.8833 128.341 14.762C128.248 14.6313 128.201 14.4773 128.201 14.3C128.201 14.0853 128.271 13.908 128.411 13.768C128.551 13.6187 128.729 13.544 128.943 13.544ZM27.652 24.2H34.82V25.082H28.674V28.288H31.88C33.0373 28.288 33.9147 28.526 34.512 29.002C35.1187 29.478 35.422 30.1687 35.422 31.074C35.422 32.0167 35.0953 32.74 34.442 33.244C33.798 33.748 32.8693 34 31.656 34H27.652V24.2ZM31.642 33.174C32.5473 33.174 33.2287 33.0013 33.686 32.656C34.1527 32.3107 34.386 31.7973 34.386 31.116C34.386 30.444 34.1573 29.9447 33.7 29.618C33.252 29.282 32.566 29.114 31.642 29.114H28.674V33.174H31.642ZM47.3439 33.104V36.296H46.3779V34H37.8239V24.2H38.8459V33.104H44.7679V24.2H45.7899V33.104H47.3439ZM58.878 28.946C59.5593 29.086 60.0773 29.3613 60.432 29.772C60.7867 30.1733 60.964 30.7007 60.964 31.354C60.964 32.2033 60.6607 32.8567 60.054 33.314C59.4567 33.7713 58.5747 34 57.408 34H53.068V24.2H57.142C58.1873 24.2 59.004 24.4147 59.592 24.844C60.18 25.2733 60.474 25.894 60.474 26.706C60.474 27.2567 60.334 27.7233 60.054 28.106C59.774 28.4793 59.382 28.7593 58.878 28.946ZM54.09 28.638H57.086C57.842 28.638 58.4207 28.484 58.822 28.176C59.2327 27.868 59.438 27.42 59.438 26.832C59.438 26.244 59.2327 25.796 58.822 25.488C58.4207 25.18 57.842 25.026 57.086 25.026H54.09V28.638ZM57.408 33.174C59.0973 33.174 59.942 32.544 59.942 31.284C59.942 30.052 59.0973 29.436 57.408 29.436H54.09V33.174H57.408ZM66.4103 29.24C67.3343 29.2493 68.039 29.4547 68.5243 29.856C69.0097 30.2573 69.2523 30.836 69.2523 31.592C69.2523 32.376 68.991 32.978 68.4683 33.398C67.9457 33.818 67.199 34.0233 66.2283 34.014L63.3163 34V26.636H64.3103V29.212L66.4103 29.24ZM70.4843 26.636H71.4783V34H70.4843V26.636ZM66.1723 33.258C66.8537 33.2673 67.367 33.132 67.7123 32.852C68.067 32.5627 68.2443 32.1427 68.2443 31.592C68.2443 31.0507 68.0717 30.6493 67.7263 30.388C67.381 30.1267 66.863 29.9913 66.1723 29.982L64.3103 29.954V33.23L66.1723 33.258ZM77.3885 34.07C76.6605 34.07 76.0072 33.9113 75.4285 33.594C74.8592 33.2767 74.4112 32.8333 74.0845 32.264C73.7579 31.6853 73.5945 31.0367 73.5945 30.318C73.5945 29.5993 73.7579 28.9553 74.0845 28.386C74.4112 27.8167 74.8592 27.3733 75.4285 27.056C76.0072 26.7387 76.6605 26.58 77.3885 26.58C78.0232 26.58 78.5879 26.706 79.0825 26.958C79.5865 27.2007 79.9832 27.56 80.2725 28.036L79.5305 28.54C79.2879 28.176 78.9799 27.9053 78.6065 27.728C78.2332 27.5413 77.8272 27.448 77.3885 27.448C76.8565 27.448 76.3759 27.5693 75.9465 27.812C75.5265 28.0453 75.1952 28.3813 74.9525 28.82C74.7192 29.2587 74.6025 29.758 74.6025 30.318C74.6025 30.8873 74.7192 31.3913 74.9525 31.83C75.1952 32.2593 75.5265 32.5953 75.9465 32.838C76.3759 33.0713 76.8565 33.188 77.3885 33.188C77.8272 33.188 78.2332 33.0993 78.6065 32.922C78.9799 32.7447 79.2879 32.474 79.5305 32.11L80.2725 32.614C79.9832 33.09 79.5865 33.454 79.0825 33.706C78.5785 33.9487 78.0139 34.07 77.3885 34.07ZM85.1122 34.07C84.4028 34.07 83.7635 33.9113 83.1942 33.594C82.6248 33.2673 82.1768 32.8193 81.8502 32.25C81.5235 31.6807 81.3602 31.0367 81.3602 30.318C81.3602 29.5993 81.5235 28.9553 81.8502 28.386C82.1768 27.8167 82.6248 27.3733 83.1942 27.056C83.7635 26.7387 84.4028 26.58 85.1122 26.58C85.8215 26.58 86.4608 26.7387 87.0302 27.056C87.5995 27.3733 88.0428 27.8167 88.3602 28.386C88.6868 28.9553 88.8502 29.5993 88.8502 30.318C88.8502 31.0367 88.6868 31.6807 88.3602 32.25C88.0428 32.8193 87.5995 33.2673 87.0302 33.594C86.4608 33.9113 85.8215 34.07 85.1122 34.07ZM85.1122 33.188C85.6348 33.188 86.1015 33.0713 86.5122 32.838C86.9322 32.5953 87.2588 32.2547 87.4922 31.816C87.7255 31.3773 87.8422 30.878 87.8422 30.318C87.8422 29.758 87.7255 29.2587 87.4922 28.82C87.2588 28.3813 86.9322 28.0453 86.5122 27.812C86.1015 27.5693 85.6348 27.448 85.1122 27.448C84.5895 27.448 84.1182 27.5693 83.6982 27.812C83.2875 28.0453 82.9608 28.3813 82.7182 28.82C82.4848 29.2587 82.3682 29.758 82.3682 30.318C82.3682 30.878 82.4848 31.3773 82.7182 31.816C82.9608 32.2547 83.2875 32.5953 83.6982 32.838C84.1182 33.0713 84.5895 33.188 85.1122 33.188ZM98.6465 33.132V35.848H97.7085V34H90.9745V26.636H91.9685V33.132H96.4625V26.636H97.4565V33.132H98.6465ZM103.219 30.724H101.539V34H100.545V26.636H101.539V29.87H103.233L105.823 26.636H106.901L104.003 30.206L107.111 34H105.935L103.219 30.724ZM108.68 26.636H109.674V32.488L114.588 26.636H115.47V34H114.476V28.148L109.576 34H108.68V26.636ZM118.318 26.636H119.312V32.488L124.226 26.636H125.108V34H124.114V28.148L119.214 34H118.318V26.636ZM121.664 25.572C121.03 25.572 120.526 25.4133 120.152 25.096C119.779 24.7787 119.588 24.3307 119.578 23.752H120.292C120.302 24.116 120.432 24.41 120.684 24.634C120.936 24.8487 121.263 24.956 121.664 24.956C122.066 24.956 122.392 24.8487 122.644 24.634C122.906 24.41 123.041 24.116 123.05 23.752H123.764C123.755 24.3307 123.559 24.7787 123.176 25.096C122.803 25.4133 122.299 25.572 121.664 25.572ZM128.041 32.544C128.256 32.544 128.433 32.6187 128.573 32.768C128.713 32.908 128.783 33.0853 128.783 33.3C128.783 33.412 128.764 33.5333 128.727 33.664C128.699 33.7947 128.652 33.944 128.587 34.112L127.999 36.044H127.327L127.803 34.014C127.654 33.9673 127.532 33.8833 127.439 33.762C127.346 33.6313 127.299 33.4773 127.299 33.3C127.299 33.0853 127.369 32.908 127.509 32.768C127.649 32.6187 127.826 32.544 128.041 32.544ZM136.478 28.218C137.896 28.218 138.928 28.4747 139.572 28.988C140.225 29.492 140.552 30.2013 140.552 31.116C140.552 31.6853 140.416 32.194 140.146 32.642C139.884 33.09 139.488 33.4447 138.956 33.706C138.424 33.958 137.77 34.084 136.996 34.084C136.296 34.084 135.628 33.972 134.994 33.748C134.368 33.5147 133.864 33.2067 133.482 32.824L133.972 32.026C134.298 32.362 134.728 32.6373 135.26 32.852C135.792 33.0573 136.366 33.16 136.982 33.16C137.794 33.16 138.419 32.978 138.858 32.614C139.306 32.25 139.53 31.7647 139.53 31.158C139.53 30.486 139.278 29.9773 138.774 29.632C138.279 29.2867 137.439 29.114 136.254 29.114H134.168L134.672 24.2H140.034V25.096H135.554L135.218 28.218H136.478ZM145.738 34.084C144.982 34.084 144.305 33.8833 143.708 33.482C143.12 33.0807 142.658 32.5067 142.322 31.76C141.995 31.004 141.832 30.1173 141.832 29.1C141.832 28.0827 141.995 27.2007 142.322 26.454C142.658 25.698 143.12 25.1193 143.708 24.718C144.305 24.3167 144.982 24.116 145.738 24.116C146.494 24.116 147.166 24.3167 147.754 24.718C148.351 25.1193 148.818 25.698 149.154 26.454C149.49 27.2007 149.658 28.0827 149.658 29.1C149.658 30.1173 149.49 31.004 149.154 31.76C148.818 32.5067 148.351 33.0807 147.754 33.482C147.166 33.8833 146.494 34.084 145.738 34.084ZM145.738 33.16C146.307 33.16 146.806 33.0013 147.236 32.684C147.674 32.3667 148.015 31.9047 148.258 31.298C148.5 30.6913 148.622 29.9587 148.622 29.1C148.622 28.2413 148.5 27.5087 148.258 26.902C148.015 26.2953 147.674 25.8333 147.236 25.516C146.806 25.1987 146.307 25.04 145.738 25.04C145.168 25.04 144.664 25.1987 144.226 25.516C143.796 25.8333 143.46 26.2953 143.218 26.902C142.975 27.5087 142.854 28.2413 142.854 29.1C142.854 29.9587 142.975 30.6913 143.218 31.298C143.46 31.9047 143.796 32.3667 144.226 32.684C144.664 33.0013 145.168 33.16 145.738 33.16ZM157.453 26.58C158.19 26.58 158.853 26.7433 159.441 27.07C160.038 27.3873 160.505 27.8307 160.841 28.4C161.186 28.9693 161.359 29.6087 161.359 30.318C161.359 31.0273 161.186 31.6713 160.841 32.25C160.505 32.8193 160.038 33.2673 159.441 33.594C158.853 33.9207 158.19 34.084 157.453 34.084C156.837 34.084 156.272 33.9907 155.759 33.804C155.246 33.608 154.812 33.328 154.457 32.964L155.045 32.376C155.67 32.964 156.459 33.258 157.411 33.258C157.943 33.258 158.424 33.146 158.853 32.922C159.292 32.698 159.646 32.3853 159.917 31.984C160.197 31.5827 160.36 31.1347 160.407 30.64H156.473V29.884H160.393C160.29 29.1467 159.964 28.5493 159.413 28.092C158.862 27.6253 158.195 27.392 157.411 27.392C156.459 27.392 155.67 27.686 155.045 28.274L154.457 27.7C154.812 27.336 155.246 27.0607 155.759 26.874C156.272 26.678 156.837 26.58 157.453 26.58ZM168.356 27.518H165.57V34H164.576V27.518H161.79V26.636H168.356V27.518ZM172.327 26.58C173.288 26.58 174.026 26.8227 174.539 27.308C175.052 27.784 175.309 28.4933 175.309 29.436V34H174.357V32.852C174.133 33.2347 173.802 33.5333 173.363 33.748C172.934 33.9627 172.42 34.07 171.823 34.07C171.002 34.07 170.348 33.874 169.863 33.482C169.378 33.09 169.135 32.572 169.135 31.928C169.135 31.3027 169.359 30.7987 169.807 30.416C170.264 30.0333 170.988 29.842 171.977 29.842H174.315V29.394C174.315 28.7593 174.138 28.2787 173.783 27.952C173.428 27.616 172.91 27.448 172.229 27.448C171.762 27.448 171.314 27.5273 170.885 27.686C170.456 27.8353 170.087 28.0453 169.779 28.316L169.331 27.574C169.704 27.2567 170.152 27.014 170.675 26.846C171.198 26.6687 171.748 26.58 172.327 26.58ZM171.977 33.286C172.537 33.286 173.018 33.16 173.419 32.908C173.82 32.6467 174.119 32.2733 174.315 31.788V30.584H172.005C170.745 30.584 170.115 31.0227 170.115 31.9C170.115 32.3293 170.278 32.67 170.605 32.922C170.932 33.1647 171.389 33.286 171.977 33.286ZM184.409 30.724H182.813V34H181.819V30.724H180.223L177.969 34H176.779L179.425 30.206L176.989 26.636H178.067L180.223 29.87H181.819V26.636H182.813V29.87H184.409L186.579 26.636H187.657L185.221 30.22L187.867 34H186.677L184.409 30.724Z" fill="#C8CDD8"/>
<path d="M5.41406 4.41406C6.39844 3.42969 7.59375 2.9375 9 2.9375C10.4062 2.9375 11.6016 3.42969 12.5859 4.41406C13.5703 5.39844 14.0625 6.59375 14.0625 8C14.0625 8.65625 13.8047 9.54688 13.2891 10.6719C12.9141 11.5859 12.3984 12.5938 11.7422 13.6953C11.4141 14.2812 11.0508 14.8789 10.6523 15.4883C10.2773 16.0977 9.98438 16.5547 9.77344 16.8594L9.45703 17.3164L9 17.9844L8.54297 17.3164C7.76953 16.2148 7.00781 15.0078 6.25781 13.6953C5.60156 12.5938 5.08594 11.5859 4.71094 10.6719C4.19531 9.54688 3.9375 8.65625 3.9375 8C3.9375 6.59375 4.42969 5.39844 5.41406 4.41406ZM11.7773 5.22266C11.0273 4.44922 10.1016 4.0625 9 4.0625C7.89844 4.0625 6.96094 4.44922 6.1875 5.22266C5.4375 5.97266 5.0625 6.89844 5.0625 8C5.0625 8.49219 5.27344 9.24219 5.69531 10.25C6.04688 11.0234 6.5625 11.9844 7.24219 13.1328C7.82812 14.1406 8.41406 15.0781 9 15.9453C9.58594 15.0781 10.1719 14.1406 10.7578 13.1328C11.4375 11.9844 11.9531 11.0234 12.3047 10.25C12.7266 9.24219 12.9375 8.49219 12.9375 8C12.9375 6.89844 12.5508 5.97266 11.7773 5.22266ZM8.19141 7.22656C8.42578 6.99219 8.69531 6.875 9 6.875C9.30469 6.875 9.5625 6.99219 9.77344 7.22656C10.0078 7.4375 10.125 7.69531 10.125 8C10.125 8.30469 10.0078 8.57422 9.77344 8.80859C9.5625 9.01953 9.30469 9.125 9 9.125C8.69531 9.125 8.42578 9.01953 8.19141 8.80859C7.98047 8.57422 7.875 8.30469 7.875 8C7.875 7.69531 7.98047 7.4375 8.19141 7.22656Z" fill="#A9AEB8"/>
</svg>
