<svg width="139" height="61" viewBox="0 0 139 61" fill="none" xmlns="http://www.w3.org/2000/svg">
<rect width="139" height="61" fill="#846A73"/>
<path d="M104.58 27.8672L108.143 31.4297L108.551 31.875L108.143 32.3203L104.58 35.8828L103.727 34.9922L106.287 32.4688H94.375V31.2812H106.287L103.727 28.7578L104.58 27.8672Z" fill="white"/>
<path d="M34.295 31.38H32.105V36H30.635V25.5H32.105V30.06H34.325L37.625 25.5H39.23L35.48 30.585L39.41 36H37.7L34.295 31.38ZM40.9126 28.05H42.3526V31.425H46.8826V28.05H48.3226V36H46.8826V32.67H42.3526V36H40.9126V28.05ZM54.5275 36.09C53.7375 36.09 53.0275 35.915 52.3975 35.565C51.7675 35.215 51.2725 34.735 50.9125 34.125C50.5625 33.505 50.3875 32.805 50.3875 32.025C50.3875 31.245 50.5625 30.55 50.9125 29.94C51.2725 29.32 51.7675 28.84 52.3975 28.5C53.0275 28.15 53.7375 27.975 54.5275 27.975C55.3175 27.975 56.0225 28.15 56.6425 28.5C57.2725 28.84 57.7625 29.32 58.1125 29.94C58.4725 30.55 58.6525 31.245 58.6525 32.025C58.6525 32.805 58.4725 33.505 58.1125 34.125C57.7625 34.735 57.2725 35.215 56.6425 35.565C56.0225 35.915 55.3175 36.09 54.5275 36.09ZM54.5275 34.83C55.0375 34.83 55.4925 34.715 55.8925 34.485C56.3025 34.245 56.6225 33.915 56.8525 33.495C57.0825 33.065 57.1975 32.575 57.1975 32.025C57.1975 31.475 57.0825 30.99 56.8525 30.57C56.6225 30.14 56.3025 29.81 55.8925 29.58C55.4925 29.35 55.0375 29.235 54.5275 29.235C54.0175 29.235 53.5575 29.35 53.1475 29.58C52.7475 29.81 52.4275 30.14 52.1875 30.57C51.9575 30.99 51.8425 31.475 51.8425 32.025C51.8425 32.575 51.9575 33.065 52.1875 33.495C52.4275 33.915 52.7475 34.245 53.1475 34.485C53.5575 34.715 54.0175 34.83 54.5275 34.83ZM68.0969 28.05V36H66.6569V29.31H62.1719V36H60.7319V28.05H68.0969ZM73.9733 32.64H72.3233V36H70.8833V28.05H72.3233V31.41H74.0033L76.5833 28.05H78.1283L75.1133 31.875L78.3383 36H76.6433L73.9733 32.64ZM82.5366 27.975C83.6366 27.975 84.4766 28.245 85.0566 28.785C85.6466 29.325 85.9416 30.13 85.9416 31.2V36H84.5766V34.95C84.3366 35.32 83.9916 35.605 83.5416 35.805C83.1016 35.995 82.5766 36.09 81.9666 36.09C81.0766 36.09 80.3616 35.875 79.8216 35.445C79.2916 35.015 79.0266 34.45 79.0266 33.75C79.0266 33.05 79.2816 32.49 79.7916 32.07C80.3016 31.64 81.1116 31.425 82.2216 31.425H84.5016V31.14C84.5016 30.52 84.3216 30.045 83.9616 29.715C83.6016 29.385 83.0716 29.22 82.3716 29.22C81.9016 29.22 81.4416 29.3 80.9916 29.46C80.5416 29.61 80.1616 29.815 79.8516 30.075L79.2516 28.995C79.6616 28.665 80.1516 28.415 80.7216 28.245C81.2916 28.065 81.8966 27.975 82.5366 27.975ZM82.2066 34.98C82.7566 34.98 83.2316 34.86 83.6316 34.62C84.0316 34.37 84.3216 34.02 84.5016 33.57V32.46H82.2816C81.0616 32.46 80.4516 32.87 80.4516 33.69C80.4516 34.09 80.6066 34.405 80.9166 34.635C81.2266 34.865 81.6566 34.98 82.2066 34.98Z" fill="white"/>
</svg>
