<svg width="180" height="60" viewBox="0 0 180 60" fill="none" xmlns="http://www.w3.org/2000/svg">
<rect width="180" height="60" fill="#444853"/>
<path d="M38.9248 21.956H42V17H38.3624C33.9752 17.2032 33.0752 19.8843 33 22.6875V25.1657H30V30H33V43H37.5V30H41.2124L41.9248 25.1657H37.5V23.6625C37.4879 23.4486 37.5154 23.2342 37.5808 23.0319C37.6463 22.8296 37.7483 22.6436 37.8811 22.4846C38.0138 22.3256 38.1745 22.197 38.3537 22.1062C38.5329 22.0155 38.7271 21.9644 38.9248 21.956Z" fill="#6A6F7D"/>
<path d="M63.075 25.805V29.465H68.34V30.755H63.075V35H61.575V24.5H68.985V25.805H63.075ZM73.5032 26.975C74.6032 26.975 75.4432 27.245 76.0232 27.785C76.6132 28.325 76.9082 29.13 76.9082 30.2V35H75.5432V33.95C75.3032 34.32 74.9582 34.605 74.5082 34.805C74.0682 34.995 73.5432 35.09 72.9332 35.09C72.0432 35.09 71.3282 34.875 70.7882 34.445C70.2582 34.015 69.9932 33.45 69.9932 32.75C69.9932 32.05 70.2482 31.49 70.7582 31.07C71.2682 30.64 72.0782 30.425 73.1882 30.425H75.4682V30.14C75.4682 29.52 75.2882 29.045 74.9282 28.715C74.5682 28.385 74.0382 28.22 73.3382 28.22C72.8682 28.22 72.4082 28.3 71.9582 28.46C71.5082 28.61 71.1282 28.815 70.8182 29.075L70.2182 27.995C70.6282 27.665 71.1182 27.415 71.6882 27.245C72.2582 27.065 72.8632 26.975 73.5032 26.975ZM73.1732 33.98C73.7232 33.98 74.1982 33.86 74.5982 33.62C74.9982 33.37 75.2882 33.02 75.4682 32.57V31.46H73.2482C72.0282 31.46 71.4182 31.87 71.4182 32.69C71.4182 33.09 71.5732 33.405 71.8832 33.635C72.1932 33.865 72.6232 33.98 73.1732 33.98ZM83.082 35.09C82.272 35.09 81.547 34.915 80.907 34.565C80.277 34.215 79.782 33.735 79.422 33.125C79.062 32.505 78.882 31.805 78.882 31.025C78.882 30.245 79.062 29.55 79.422 28.94C79.782 28.32 80.277 27.84 80.907 27.5C81.547 27.15 82.272 26.975 83.082 26.975C83.802 26.975 84.442 27.12 85.002 27.41C85.572 27.7 86.012 28.12 86.322 28.67L85.227 29.375C84.977 28.995 84.667 28.71 84.297 28.52C83.927 28.33 83.517 28.235 83.067 28.235C82.547 28.235 82.077 28.35 81.657 28.58C81.247 28.81 80.922 29.14 80.682 29.57C80.452 29.99 80.337 30.475 80.337 31.025C80.337 31.585 80.452 32.08 80.682 32.51C80.922 32.93 81.247 33.255 81.657 33.485C82.077 33.715 82.547 33.83 83.067 33.83C83.517 33.83 83.927 33.735 84.297 33.545C84.667 33.355 84.977 33.07 85.227 32.69L86.322 33.38C86.012 33.93 85.572 34.355 85.002 34.655C84.442 34.945 83.802 35.09 83.082 35.09ZM95.2541 31.07C95.2541 31.18 95.2441 31.325 95.2241 31.505H88.7741C88.8641 32.205 89.1691 32.77 89.6891 33.2C90.2191 33.62 90.8741 33.83 91.6541 33.83C92.6041 33.83 93.3691 33.51 93.9491 32.87L94.7441 33.8C94.3841 34.22 93.9341 34.54 93.3941 34.76C92.8641 34.98 92.2691 35.09 91.6091 35.09C90.7691 35.09 90.0241 34.92 89.3741 34.58C88.7241 34.23 88.2191 33.745 87.8591 33.125C87.5091 32.505 87.3341 31.805 87.3341 31.025C87.3341 30.255 87.5041 29.56 87.8441 28.94C88.1941 28.32 88.6691 27.84 89.2691 27.5C89.8791 27.15 90.5641 26.975 91.3241 26.975C92.0841 26.975 92.7591 27.15 93.3491 27.5C93.9491 27.84 94.4141 28.32 94.7441 28.94C95.0841 29.56 95.2541 30.27 95.2541 31.07ZM91.3241 28.19C90.6341 28.19 90.0541 28.4 89.5841 28.82C89.1241 29.24 88.8541 29.79 88.7741 30.47H93.8741C93.7941 29.8 93.5191 29.255 93.0491 28.835C92.5891 28.405 92.0141 28.19 91.3241 28.19ZM101.469 26.975C102.239 26.975 102.929 27.145 103.539 27.485C104.149 27.825 104.624 28.3 104.964 28.91C105.314 29.52 105.489 30.225 105.489 31.025C105.489 31.825 105.314 32.535 104.964 33.155C104.624 33.765 104.149 34.24 103.539 34.58C102.929 34.92 102.239 35.09 101.469 35.09C100.879 35.09 100.339 34.975 99.8487 34.745C99.3587 34.515 98.9537 34.18 98.6337 33.74V35H97.2537V23.87H98.6937V28.25C99.0137 27.83 99.4137 27.515 99.8937 27.305C100.374 27.085 100.899 26.975 101.469 26.975ZM101.349 33.83C101.859 33.83 102.314 33.715 102.714 33.485C103.124 33.245 103.444 32.915 103.674 32.495C103.914 32.065 104.034 31.575 104.034 31.025C104.034 30.475 103.914 29.99 103.674 29.57C103.444 29.14 103.124 28.81 102.714 28.58C102.314 28.35 101.859 28.235 101.349 28.235C100.849 28.235 100.394 28.35 99.9837 28.58C99.5737 28.81 99.2537 29.14 99.0237 29.57C98.7937 29.99 98.6787 30.475 98.6787 31.025C98.6787 31.575 98.7937 32.065 99.0237 32.495C99.2537 32.915 99.5737 33.245 99.9837 33.485C100.394 33.715 100.849 33.83 101.349 33.83ZM110.883 35.09C110.093 35.09 109.383 34.915 108.753 34.565C108.123 34.215 107.628 33.735 107.268 33.125C106.918 32.505 106.743 31.805 106.743 31.025C106.743 30.245 106.918 29.55 107.268 28.94C107.628 28.32 108.123 27.84 108.753 27.5C109.383 27.15 110.093 26.975 110.883 26.975C111.673 26.975 112.378 27.15 112.998 27.5C113.628 27.84 114.118 28.32 114.468 28.94C114.828 29.55 115.008 30.245 115.008 31.025C115.008 31.805 114.828 32.505 114.468 33.125C114.118 33.735 113.628 34.215 112.998 34.565C112.378 34.915 111.673 35.09 110.883 35.09ZM110.883 33.83C111.393 33.83 111.848 33.715 112.248 33.485C112.658 33.245 112.978 32.915 113.208 32.495C113.438 32.065 113.553 31.575 113.553 31.025C113.553 30.475 113.438 29.99 113.208 29.57C112.978 29.14 112.658 28.81 112.248 28.58C111.848 28.35 111.393 28.235 110.883 28.235C110.373 28.235 109.913 28.35 109.503 28.58C109.103 28.81 108.783 29.14 108.543 29.57C108.313 29.99 108.198 30.475 108.198 31.025C108.198 31.575 108.313 32.065 108.543 32.495C108.783 32.915 109.103 33.245 109.503 33.485C109.913 33.715 110.373 33.83 110.883 33.83ZM120.405 35.09C119.615 35.09 118.905 34.915 118.275 34.565C117.645 34.215 117.15 33.735 116.79 33.125C116.44 32.505 116.265 31.805 116.265 31.025C116.265 30.245 116.44 29.55 116.79 28.94C117.15 28.32 117.645 27.84 118.275 27.5C118.905 27.15 119.615 26.975 120.405 26.975C121.195 26.975 121.9 27.15 122.52 27.5C123.15 27.84 123.64 28.32 123.99 28.94C124.35 29.55 124.53 30.245 124.53 31.025C124.53 31.805 124.35 32.505 123.99 33.125C123.64 33.735 123.15 34.215 122.52 34.565C121.9 34.915 121.195 35.09 120.405 35.09ZM120.405 33.83C120.915 33.83 121.37 33.715 121.77 33.485C122.18 33.245 122.5 32.915 122.73 32.495C122.96 32.065 123.075 31.575 123.075 31.025C123.075 30.475 122.96 29.99 122.73 29.57C122.5 29.14 122.18 28.81 121.77 28.58C121.37 28.35 120.915 28.235 120.405 28.235C119.895 28.235 119.435 28.35 119.025 28.58C118.625 28.81 118.305 29.14 118.065 29.57C117.835 29.99 117.72 30.475 117.72 31.025C117.72 31.575 117.835 32.065 118.065 32.495C118.305 32.915 118.625 33.245 119.025 33.485C119.435 33.715 119.895 33.83 120.405 33.83ZM129.611 31.295L127.961 32.825V35H126.521V23.87H127.961V31.01L132.296 27.05H134.036L130.691 30.335L134.366 35H132.596L129.611 31.295Z" fill="white"/>
</svg>
