<svg width="181" height="25" viewBox="0 0 181 25" fill="none" xmlns="http://www.w3.org/2000/svg">
<path d="M34.608 12.376H31.824V15.096H29.76V12.376H26.992V10.424H29.76V7.704H31.824V10.424H34.608V12.376ZM44.8139 5.8V7.48L40.6539 17H37.8379L41.8539 7.912H38.1419V9.736H35.8379V5.8H44.8139ZM53.043 20.104C52.403 19.1333 51.907 18.008 51.555 16.728C51.2137 15.448 51.043 14.0773 51.043 12.616C51.043 11.1547 51.2137 9.784 51.555 8.504C51.907 7.21333 52.403 6.088 53.043 5.128H55.427C54.755 6.312 54.2643 7.51733 53.955 8.744C53.6457 9.96 53.491 11.2507 53.491 12.616C53.491 13.9813 53.6457 15.2773 53.955 16.504C54.2643 17.72 54.755 18.92 55.427 20.104H53.043ZM61.4498 10.36C62.4311 10.52 63.1831 10.888 63.7058 11.464C64.2284 12.0293 64.4898 12.7333 64.4898 13.576C64.4898 14.2267 64.3191 14.8293 63.9778 15.384C63.6364 15.928 63.1138 16.3653 62.4098 16.696C61.7164 17.0267 60.8631 17.192 59.8498 17.192C59.0604 17.192 58.2818 17.0907 57.5138 16.888C56.7564 16.6747 56.1111 16.376 55.5777 15.992L56.5858 14.008C57.0124 14.328 57.5031 14.5787 58.0578 14.76C58.6231 14.9307 59.1991 15.016 59.7858 15.016C60.4364 15.016 60.9484 14.8933 61.3218 14.648C61.6951 14.392 61.8818 14.0347 61.8818 13.576C61.8818 12.6587 61.1831 12.2 59.7858 12.2H58.6018V10.488L60.9058 7.88H56.1378V5.8H63.9778V7.48L61.4498 10.36ZM75.9425 14.648H74.1185V17H71.5905V14.648H65.5585V12.904L70.8385 5.8H73.5585L68.6625 12.536H71.6705V10.44H74.1185V12.536H75.9425V14.648ZM81.8404 10.36C82.8217 10.52 83.5737 10.888 84.0964 11.464C84.619 12.0293 84.8804 12.7333 84.8804 13.576C84.8804 14.2267 84.7097 14.8293 84.3684 15.384C84.027 15.928 83.5044 16.3653 82.8004 16.696C82.107 17.0267 81.2537 17.192 80.2404 17.192C79.451 17.192 78.6724 17.0907 77.9044 16.888C77.147 16.6747 76.5017 16.376 75.9684 15.992L76.9764 14.008C77.403 14.328 77.8937 14.5787 78.4484 14.76C79.0137 14.9307 79.5897 15.016 80.1764 15.016C80.827 15.016 81.339 14.8933 81.7124 14.648C82.0857 14.392 82.2724 14.0347 82.2724 13.576C82.2724 12.6587 81.5737 12.2 80.1764 12.2H78.9924V10.488L81.2964 7.88H76.5284V5.8H84.3684V7.48L81.8404 10.36ZM85.6131 20.104C86.2851 18.92 86.7758 17.72 87.0851 16.504C87.4051 15.2773 87.5651 13.9813 87.5651 12.616C87.5651 11.2507 87.4051 9.96 87.0851 8.744C86.7758 7.51733 86.2851 6.312 85.6131 5.128H87.9971C88.6478 6.07733 89.1438 7.19733 89.4851 8.488C89.8371 9.768 90.0131 11.144 90.0131 12.616C90.0131 14.088 89.8425 15.464 89.5011 16.744C89.1598 18.0133 88.6585 19.1333 87.9971 20.104H85.6131ZM104.711 14.888V17H96.2467V15.32L100.567 11.24C101.025 10.8027 101.335 10.4293 101.495 10.12C101.655 9.8 101.735 9.48533 101.735 9.176C101.735 8.728 101.58 8.38667 101.271 8.152C100.972 7.90667 100.529 7.784 99.9427 7.784C99.4521 7.784 99.0094 7.88 98.6148 8.072C98.2201 8.25333 97.8894 8.53067 97.6228 8.904L95.7348 7.688C96.1721 7.03733 96.7748 6.53067 97.5428 6.168C98.3108 5.79467 99.1908 5.608 100.183 5.608C101.015 5.608 101.74 5.74667 102.359 6.024C102.988 6.29067 103.473 6.67467 103.815 7.176C104.167 7.66667 104.343 8.248 104.343 8.92C104.343 9.528 104.215 10.0987 103.959 10.632C103.703 11.1653 103.207 11.7733 102.471 12.456L99.8948 14.888H104.711ZM109.716 5.608C111.284 5.608 112.511 6.088 113.396 7.048C114.282 7.99733 114.724 9.368 114.724 11.16C114.724 12.4293 114.484 13.5173 114.004 14.424C113.535 15.3307 112.868 16.0187 112.004 16.488C111.14 16.9573 110.143 17.192 109.012 17.192C108.415 17.192 107.844 17.128 107.3 17C106.756 16.8613 106.292 16.6693 105.908 16.424L106.868 14.52C107.412 14.8933 108.111 15.08 108.964 15.08C109.914 15.08 110.666 14.8027 111.22 14.248C111.775 13.6827 112.074 12.872 112.116 11.816C111.444 12.488 110.516 12.824 109.332 12.824C108.618 12.824 107.967 12.68 107.38 12.392C106.794 12.104 106.33 11.6987 105.988 11.176C105.647 10.6427 105.476 10.0293 105.476 9.336C105.476 8.58933 105.663 7.93333 106.036 7.368C106.41 6.80267 106.916 6.37067 107.556 6.072C108.207 5.76267 108.927 5.608 109.716 5.608ZM109.908 10.888C110.474 10.888 110.932 10.7333 111.284 10.424C111.647 10.104 111.828 9.69867 111.828 9.208C111.828 8.71733 111.652 8.31733 111.3 8.008C110.959 7.69867 110.484 7.544 109.876 7.544C109.322 7.544 108.868 7.69333 108.516 7.992C108.175 8.29067 108.004 8.696 108.004 9.208C108.004 9.72 108.175 10.1307 108.516 10.44C108.868 10.7387 109.332 10.888 109.908 10.888ZM123.632 11.112C124.186 11.3893 124.608 11.752 124.896 12.2C125.194 12.648 125.344 13.1653 125.344 13.752C125.344 14.4453 125.146 15.0533 124.752 15.576C124.357 16.088 123.802 16.488 123.088 16.776C122.373 17.0533 121.546 17.192 120.608 17.192C119.669 17.192 118.842 17.0533 118.128 16.776C117.424 16.488 116.874 16.088 116.48 15.576C116.096 15.0533 115.904 14.4453 115.904 13.752C115.904 13.1653 116.048 12.648 116.336 12.2C116.634 11.752 117.056 11.3893 117.6 11.112C117.184 10.856 116.864 10.536 116.64 10.152C116.416 9.75733 116.304 9.30933 116.304 8.808C116.304 8.15733 116.485 7.592 116.848 7.112C117.21 6.632 117.717 6.264 118.368 6.008C119.018 5.74133 119.765 5.608 120.608 5.608C121.461 5.608 122.213 5.74133 122.864 6.008C123.525 6.264 124.037 6.632 124.4 7.112C124.762 7.592 124.944 8.15733 124.944 8.808C124.944 9.30933 124.832 9.75733 124.608 10.152C124.384 10.536 124.058 10.856 123.632 11.112ZM120.608 7.512C120.085 7.512 119.664 7.64 119.344 7.896C119.034 8.14133 118.88 8.48267 118.88 8.92C118.88 9.34667 119.034 9.68267 119.344 9.928C119.653 10.1733 120.074 10.296 120.608 10.296C121.141 10.296 121.568 10.1733 121.888 9.928C122.208 9.68267 122.368 9.34667 122.368 8.92C122.368 8.48267 122.208 8.14133 121.888 7.896C121.568 7.64 121.141 7.512 120.608 7.512ZM120.608 15.288C121.258 15.288 121.77 15.144 122.144 14.856C122.528 14.5573 122.72 14.1627 122.72 13.672C122.72 13.1813 122.528 12.792 122.144 12.504C121.77 12.216 121.258 12.072 120.608 12.072C119.968 12.072 119.461 12.216 119.088 12.504C118.714 12.792 118.528 13.1813 118.528 13.672C118.528 14.1733 118.714 14.568 119.088 14.856C119.461 15.144 119.968 15.288 120.608 15.288ZM126.738 11.496H131.266V13.496H126.738V11.496ZM136.638 5.608C138.206 5.608 139.433 6.088 140.318 7.048C141.203 7.99733 141.646 9.368 141.646 11.16C141.646 12.4293 141.406 13.5173 140.926 14.424C140.457 15.3307 139.79 16.0187 138.926 16.488C138.062 16.9573 137.065 17.192 135.934 17.192C135.337 17.192 134.766 17.128 134.222 17C133.678 16.8613 133.214 16.6693 132.83 16.424L133.79 14.52C134.334 14.8933 135.033 15.08 135.886 15.08C136.835 15.08 137.587 14.8027 138.142 14.248C138.697 13.6827 138.995 12.872 139.038 11.816C138.366 12.488 137.438 12.824 136.254 12.824C135.539 12.824 134.889 12.68 134.302 12.392C133.715 12.104 133.251 11.6987 132.91 11.176C132.569 10.6427 132.398 10.0293 132.398 9.336C132.398 8.58933 132.585 7.93333 132.958 7.368C133.331 6.80267 133.838 6.37067 134.478 6.072C135.129 5.76267 135.849 5.608 136.638 5.608ZM136.83 10.888C137.395 10.888 137.854 10.7333 138.206 10.424C138.569 10.104 138.75 9.69867 138.75 9.208C138.75 8.71733 138.574 8.31733 138.222 8.008C137.881 7.69867 137.406 7.544 136.798 7.544C136.243 7.544 135.79 7.69333 135.438 7.992C135.097 8.29067 134.926 8.696 134.926 9.208C134.926 9.72 135.097 10.1307 135.438 10.44C135.79 10.7387 136.254 10.888 136.83 10.888ZM150.554 11.112C151.108 11.3893 151.53 11.752 151.818 12.2C152.116 12.648 152.266 13.1653 152.266 13.752C152.266 14.4453 152.068 15.0533 151.674 15.576C151.279 16.088 150.724 16.488 150.01 16.776C149.295 17.0533 148.468 17.192 147.53 17.192C146.591 17.192 145.764 17.0533 145.05 16.776C144.346 16.488 143.796 16.088 143.402 15.576C143.018 15.0533 142.826 14.4453 142.826 13.752C142.826 13.1653 142.97 12.648 143.258 12.2C143.556 11.752 143.978 11.3893 144.522 11.112C144.106 10.856 143.786 10.536 143.562 10.152C143.338 9.75733 143.226 9.30933 143.226 8.808C143.226 8.15733 143.407 7.592 143.77 7.112C144.132 6.632 144.639 6.264 145.29 6.008C145.94 5.74133 146.687 5.608 147.53 5.608C148.383 5.608 149.135 5.74133 149.786 6.008C150.447 6.264 150.959 6.632 151.322 7.112C151.684 7.592 151.866 8.15733 151.866 8.808C151.866 9.30933 151.754 9.75733 151.53 10.152C151.306 10.536 150.98 10.856 150.554 11.112ZM147.53 7.512C147.007 7.512 146.586 7.64 146.266 7.896C145.956 8.14133 145.802 8.48267 145.802 8.92C145.802 9.34667 145.956 9.68267 146.266 9.928C146.575 10.1733 146.996 10.296 147.53 10.296C148.063 10.296 148.49 10.1733 148.81 9.928C149.13 9.68267 149.29 9.34667 149.29 8.92C149.29 8.48267 149.13 8.14133 148.81 7.896C148.49 7.64 148.063 7.512 147.53 7.512ZM147.53 15.288C148.18 15.288 148.692 15.144 149.066 14.856C149.45 14.5573 149.642 14.1627 149.642 13.672C149.642 13.1813 149.45 12.792 149.066 12.504C148.692 12.216 148.18 12.072 147.53 12.072C146.89 12.072 146.383 12.216 146.01 12.504C145.636 12.792 145.45 13.1813 145.45 13.672C145.45 14.1733 145.636 14.568 146.01 14.856C146.383 15.144 146.89 15.288 147.53 15.288ZM153.66 11.496H158.188V13.496H153.66V11.496ZM167.288 11.112C167.843 11.3893 168.264 11.752 168.552 12.2C168.851 12.648 169 13.1653 169 13.752C169 14.4453 168.803 15.0533 168.408 15.576C168.013 16.088 167.459 16.488 166.744 16.776C166.029 17.0533 165.203 17.192 164.264 17.192C163.325 17.192 162.499 17.0533 161.784 16.776C161.08 16.488 160.531 16.088 160.136 15.576C159.752 15.0533 159.56 14.4453 159.56 13.752C159.56 13.1653 159.704 12.648 159.992 12.2C160.291 11.752 160.712 11.3893 161.256 11.112C160.84 10.856 160.52 10.536 160.296 10.152C160.072 9.75733 159.96 9.30933 159.96 8.808C159.96 8.15733 160.141 7.592 160.504 7.112C160.867 6.632 161.373 6.264 162.024 6.008C162.675 5.74133 163.421 5.608 164.264 5.608C165.117 5.608 165.869 5.74133 166.52 6.008C167.181 6.264 167.693 6.632 168.056 7.112C168.419 7.592 168.6 8.15733 168.6 8.808C168.6 9.30933 168.488 9.75733 168.264 10.152C168.04 10.536 167.715 10.856 167.288 11.112ZM164.264 7.512C163.741 7.512 163.32 7.64 163 7.896C162.691 8.14133 162.536 8.48267 162.536 8.92C162.536 9.34667 162.691 9.68267 163 9.928C163.309 10.1733 163.731 10.296 164.264 10.296C164.797 10.296 165.224 10.1733 165.544 9.928C165.864 9.68267 166.024 9.34667 166.024 8.92C166.024 8.48267 165.864 8.14133 165.544 7.896C165.224 7.64 164.797 7.512 164.264 7.512ZM164.264 15.288C164.915 15.288 165.427 15.144 165.8 14.856C166.184 14.5573 166.376 14.1627 166.376 13.672C166.376 13.1813 166.184 12.792 165.8 12.504C165.427 12.216 164.915 12.072 164.264 12.072C163.624 12.072 163.117 12.216 162.744 12.504C162.371 12.792 162.184 13.1813 162.184 13.672C162.184 14.1733 162.371 14.568 162.744 14.856C163.117 15.144 163.624 15.288 164.264 15.288ZM177.851 11.112C178.405 11.3893 178.827 11.752 179.115 12.2C179.413 12.648 179.562 13.1653 179.562 13.752C179.562 14.4453 179.365 15.0533 178.97 15.576C178.576 16.088 178.021 16.488 177.307 16.776C176.592 17.0533 175.765 17.192 174.827 17.192C173.888 17.192 173.061 17.0533 172.347 16.776C171.643 16.488 171.093 16.088 170.699 15.576C170.315 15.0533 170.123 14.4453 170.123 13.752C170.123 13.1653 170.267 12.648 170.555 12.2C170.853 11.752 171.275 11.3893 171.819 11.112C171.403 10.856 171.083 10.536 170.859 10.152C170.635 9.75733 170.523 9.30933 170.523 8.808C170.523 8.15733 170.704 7.592 171.067 7.112C171.429 6.632 171.936 6.264 172.587 6.008C173.237 5.74133 173.984 5.608 174.827 5.608C175.68 5.608 176.432 5.74133 177.083 6.008C177.744 6.264 178.256 6.632 178.619 7.112C178.981 7.592 179.163 8.15733 179.163 8.808C179.163 9.30933 179.051 9.75733 178.827 10.152C178.603 10.536 178.277 10.856 177.851 11.112ZM174.827 7.512C174.304 7.512 173.883 7.64 173.562 7.896C173.253 8.14133 173.099 8.48267 173.099 8.92C173.099 9.34667 173.253 9.68267 173.562 9.928C173.872 10.1733 174.293 10.296 174.827 10.296C175.36 10.296 175.787 10.1733 176.107 9.928C176.427 9.68267 176.587 9.34667 176.587 8.92C176.587 8.48267 176.427 8.14133 176.107 7.896C175.787 7.64 175.36 7.512 174.827 7.512ZM174.827 15.288C175.477 15.288 175.989 15.144 176.363 14.856C176.747 14.5573 176.939 14.1627 176.939 13.672C176.939 13.1813 176.747 12.792 176.363 12.504C175.989 12.216 175.477 12.072 174.827 12.072C174.187 12.072 173.68 12.216 173.307 12.504C172.933 12.792 172.747 13.1813 172.747 13.672C172.747 14.1733 172.933 14.568 173.307 14.856C173.68 15.144 174.187 15.288 174.827 15.288Z" fill="#C8CDD8"/>
<path d="M4.04297 3.21875C4.30078 3.03125 4.57031 2.9375 4.85156 2.9375C5.15625 2.9375 5.4375 3.03125 5.69531 3.21875L5.73047 3.25391L5.76562 3.28906L8.01562 5.60938L8.05078 5.64453L8.01562 5.67969C8.27344 5.89062 8.40234 6.17188 8.40234 6.52344C8.40234 6.85156 8.28516 7.13281 8.05078 7.36719L6.92578 8.49219C7.32422 9.40625 7.85156 10.1797 8.50781 10.8125C9.16406 11.4453 9.92578 11.9609 10.793 12.3594L11.8828 11.2695L11.918 11.2344C12.1523 11.0234 12.4453 10.918 12.7969 10.918C13.1484 10.918 13.4414 11.0234 13.6758 11.2344L13.7109 11.3047L15.9609 13.5547C16.1953 13.7891 16.3125 14.082 16.3125 14.4336C16.3125 14.7852 16.1953 15.0781 15.9609 15.3125L14.2383 17.0703H14.2031C13.6172 17.5859 12.9609 17.7266 12.2344 17.4922C9.70312 16.4844 7.57031 15.125 5.83594 13.4141C3.96094 11.5156 2.60156 9.38281 1.75781 7.01562C1.5 6.26563 1.66406 5.63281 2.25 5.11719V5.08203L4.00781 3.28906V3.25391L4.04297 3.21875ZM4.99219 4.13281C4.94531 4.08594 4.89844 4.0625 4.85156 4.0625C4.82812 4.0625 4.79297 4.08594 4.74609 4.13281L3.02344 5.85547V5.89062C2.78906 6.07812 2.71875 6.32422 2.8125 6.62891C3.58594 8.83203 4.86328 10.8242 6.64453 12.6055C8.23828 14.1992 10.2188 15.4648 12.5859 16.4023C12.9141 16.5195 13.207 16.4609 13.4648 16.2266L15.1875 14.5391C15.2344 14.4688 15.2344 14.4102 15.1875 14.3633L12.8672 12.0781C12.8203 12.0078 12.7734 12.0078 12.7266 12.0781L11.3203 13.4844L11.0391 13.7305L10.6875 13.5547C9.65625 13.1328 8.70703 12.5234 7.83984 11.7266L7.73438 11.6211C7.3125 11.2461 6.9375 10.8125 6.60938 10.3203C6.28125 9.80469 6.04688 9.38281 5.90625 9.05469L5.69531 8.59766L5.58984 8.24609L5.83594 8L7.24219 6.59375C7.3125 6.54688 7.33594 6.5 7.3125 6.45312H7.27734L7.24219 6.41797L4.99219 4.13281Z" fill="#A9AEB8"/>
</svg>
