<svg width="181" height="41" viewBox="0 0 181 41" fill="none" xmlns="http://www.w3.org/2000/svg">
<path d="M32.104 11.192C33.1027 11.4253 33.602 12.0273 33.602 12.998C33.602 13.642 33.364 14.1367 32.888 14.482C32.412 14.8273 31.7027 15 30.76 15H27.414V7.636H30.662C31.502 7.636 32.16 7.79933 32.636 8.126C33.112 8.45267 33.35 8.91933 33.35 9.526C33.35 9.92733 33.238 10.2727 33.014 10.562C32.7993 10.842 32.496 11.052 32.104 11.192ZM28.38 10.912H30.592C31.1613 10.912 31.5953 10.8047 31.894 10.59C32.202 10.3753 32.356 10.0627 32.356 9.652C32.356 9.24133 32.202 8.93333 31.894 8.728C31.5953 8.52267 31.1613 8.42 30.592 8.42H28.38V10.912ZM30.718 14.216C31.3527 14.216 31.8287 14.1133 32.146 13.908C32.4633 13.7027 32.622 13.3807 32.622 12.942C32.622 12.5033 32.4773 12.1813 32.188 11.976C31.8987 11.7613 31.4413 11.654 30.816 11.654H28.38V14.216H30.718ZM39.0116 15.07C38.2836 15.07 37.6302 14.9113 37.0516 14.594C36.4822 14.2767 36.0342 13.8333 35.7076 13.264C35.3809 12.6853 35.2176 12.0367 35.2176 11.318C35.2176 10.5993 35.3809 9.95533 35.7076 9.386C36.0342 8.81667 36.4822 8.37333 37.0516 8.056C37.6302 7.73867 38.2836 7.58 39.0116 7.58C39.6462 7.58 40.2109 7.706 40.7056 7.958C41.2096 8.20067 41.6062 8.56 41.8956 9.036L41.1536 9.54C40.9109 9.176 40.6029 8.90533 40.2296 8.728C39.8562 8.54133 39.4502 8.448 39.0116 8.448C38.4796 8.448 37.9989 8.56933 37.5696 8.812C37.1496 9.04533 36.8182 9.38133 36.5756 9.82C36.3422 10.2587 36.2256 10.758 36.2256 11.318C36.2256 11.8873 36.3422 12.3913 36.5756 12.83C36.8182 13.2593 37.1496 13.5953 37.5696 13.838C37.9989 14.0713 38.4796 14.188 39.0116 14.188C39.4502 14.188 39.8562 14.0993 40.2296 13.922C40.6029 13.7447 40.9109 13.474 41.1536 13.11L41.8956 13.614C41.6062 14.09 41.2096 14.454 40.7056 14.706C40.2016 14.9487 39.6369 15.07 39.0116 15.07ZM43.1505 10.772H46.8185V11.64H43.1505V10.772ZM54.6283 7.636V15H53.6343V11.934C52.7849 12.3073 51.9496 12.494 51.1283 12.494C50.2416 12.494 49.5509 12.2933 49.0563 11.892C48.5616 11.4813 48.3143 10.87 48.3143 10.058V7.636H49.3083V10.002C49.3083 10.5527 49.4856 10.9727 49.8403 11.262C50.1949 11.542 50.6849 11.682 51.3103 11.682C52.0009 11.682 52.7756 11.5 53.6343 11.136V7.636H54.6283ZM62.6311 8.518H59.8451V15H58.8511V8.518H56.0651V7.636H62.6311V8.518ZM70.8124 15.07C70.0844 15.07 69.431 14.9113 68.8524 14.594C68.283 14.2767 67.835 13.8333 67.5084 13.264C67.1817 12.6853 67.0184 12.0367 67.0184 11.318C67.0184 10.5993 67.1817 9.95533 67.5084 9.386C67.835 8.81667 68.283 8.37333 68.8524 8.056C69.431 7.73867 70.0844 7.58 70.8124 7.58C71.447 7.58 72.0117 7.706 72.5064 7.958C73.0104 8.20067 73.407 8.56 73.6964 9.036L72.9544 9.54C72.7117 9.176 72.4037 8.90533 72.0304 8.728C71.657 8.54133 71.251 8.448 70.8124 8.448C70.2804 8.448 69.7997 8.56933 69.3704 8.812C68.9504 9.04533 68.619 9.38133 68.3764 9.82C68.143 10.2587 68.0264 10.758 68.0264 11.318C68.0264 11.8873 68.143 12.3913 68.3764 12.83C68.619 13.2593 68.9504 13.5953 69.3704 13.838C69.7997 14.0713 70.2804 14.188 70.8124 14.188C71.251 14.188 71.657 14.0993 72.0304 13.922C72.4037 13.7447 72.7117 13.474 72.9544 13.11L73.6964 13.614C73.407 14.09 73.0104 14.454 72.5064 14.706C72.0024 14.9487 71.4377 15.07 70.8124 15.07ZM81.3151 5.2V15H80.3071V6.096H77.9971V5.2H81.3151ZM87.7177 9.134C88.3617 9.134 88.931 9.25533 89.4257 9.498C89.9297 9.74067 90.3217 10.086 90.6017 10.534C90.8817 10.9727 91.0217 11.486 91.0217 12.074C91.0217 12.6713 90.877 13.1987 90.5877 13.656C90.2984 14.1133 89.897 14.468 89.3837 14.72C88.8797 14.9627 88.3104 15.084 87.6757 15.084C86.3784 15.084 85.3844 14.6593 84.6937 13.81C84.003 12.9513 83.6577 11.7427 83.6577 10.184C83.6577 9.092 83.8444 8.168 84.2177 7.412C84.591 6.656 85.1137 6.08667 85.7857 5.704C86.4577 5.312 87.2417 5.116 88.1377 5.116C89.1084 5.116 89.883 5.29333 90.4617 5.648L90.0557 6.46C89.589 6.152 88.9544 5.998 88.1517 5.998C87.069 5.998 86.2197 6.34333 85.6037 7.034C84.9877 7.71533 84.6797 8.70933 84.6797 10.016C84.6797 10.2493 84.6937 10.5153 84.7217 10.814C84.9644 10.282 85.3517 9.87133 85.8837 9.582C86.4157 9.28333 87.027 9.134 87.7177 9.134ZM87.6337 14.23C88.343 14.23 88.917 14.0387 89.3557 13.656C89.8037 13.264 90.0277 12.746 90.0277 12.102C90.0277 11.458 89.8037 10.9447 89.3557 10.562C88.917 10.1793 88.3197 9.988 87.5637 9.988C87.069 9.988 86.6304 10.0813 86.2477 10.268C85.8744 10.4547 85.5804 10.7113 85.3657 11.038C85.151 11.3647 85.0437 11.7287 85.0437 12.13C85.0437 12.5033 85.1417 12.8487 85.3377 13.166C85.543 13.4833 85.8417 13.74 86.2337 13.936C86.6257 14.132 87.0924 14.23 87.6337 14.23ZM92.9449 9.106C92.7396 9.106 92.5623 9.03133 92.4129 8.882C92.2729 8.73267 92.2029 8.55067 92.2029 8.336C92.2029 8.12133 92.2729 7.944 92.4129 7.804C92.5623 7.65467 92.7396 7.58 92.9449 7.58C93.1503 7.58 93.3276 7.65467 93.4769 7.804C93.6263 7.944 93.7009 8.12133 93.7009 8.336C93.7009 8.55067 93.6263 8.73267 93.4769 8.882C93.3276 9.03133 93.1503 9.106 92.9449 9.106ZM92.9449 15.07C92.7396 15.07 92.5623 14.9953 92.4129 14.846C92.2729 14.6967 92.2029 14.5147 92.2029 14.3C92.2029 14.0853 92.2729 13.908 92.4129 13.768C92.5623 13.6187 92.7396 13.544 92.9449 13.544C93.1503 13.544 93.3276 13.6187 93.4769 13.768C93.6263 13.908 93.7009 14.0853 93.7009 14.3C93.7009 14.5147 93.6263 14.6967 93.4769 14.846C93.3276 14.9953 93.1503 15.07 92.9449 15.07ZM99.0617 15.084C98.3057 15.084 97.6291 14.8833 97.0317 14.482C96.4437 14.0807 95.9817 13.5067 95.6457 12.76C95.3191 12.004 95.1557 11.1173 95.1557 10.1C95.1557 9.08267 95.3191 8.20067 95.6457 7.454C95.9817 6.698 96.4437 6.11933 97.0317 5.718C97.6291 5.31667 98.3057 5.116 99.0617 5.116C99.8177 5.116 100.49 5.31667 101.078 5.718C101.675 6.11933 102.142 6.698 102.478 7.454C102.814 8.20067 102.982 9.08267 102.982 10.1C102.982 11.1173 102.814 12.004 102.478 12.76C102.142 13.5067 101.675 14.0807 101.078 14.482C100.49 14.8833 99.8177 15.084 99.0617 15.084ZM99.0617 14.16C99.6311 14.16 100.13 14.0013 100.56 13.684C100.998 13.3667 101.339 12.9047 101.582 12.298C101.824 11.6913 101.946 10.9587 101.946 10.1C101.946 9.24133 101.824 8.50867 101.582 7.902C101.339 7.29533 100.998 6.83333 100.56 6.516C100.13 6.19867 99.6311 6.04 99.0617 6.04C98.4924 6.04 97.9884 6.19867 97.5497 6.516C97.1204 6.83333 96.7844 7.29533 96.5417 7.902C96.2991 8.50867 96.1777 9.24133 96.1777 10.1C96.1777 10.9587 96.2991 11.6913 96.5417 12.298C96.7844 12.9047 97.1204 13.3667 97.5497 13.684C97.9884 14.0013 98.4924 14.16 99.0617 14.16ZM108.331 15.084C107.575 15.084 106.899 14.8833 106.301 14.482C105.713 14.0807 105.251 13.5067 104.915 12.76C104.589 12.004 104.425 11.1173 104.425 10.1C104.425 9.08267 104.589 8.20067 104.915 7.454C105.251 6.698 105.713 6.11933 106.301 5.718C106.899 5.31667 107.575 5.116 108.331 5.116C109.087 5.116 109.759 5.31667 110.347 5.718C110.945 6.11933 111.411 6.698 111.747 7.454C112.083 8.20067 112.251 9.08267 112.251 10.1C112.251 11.1173 112.083 12.004 111.747 12.76C111.411 13.5067 110.945 14.0807 110.347 14.482C109.759 14.8833 109.087 15.084 108.331 15.084ZM108.331 14.16C108.901 14.16 109.4 14.0013 109.829 13.684C110.268 13.3667 110.609 12.9047 110.851 12.298C111.094 11.6913 111.215 10.9587 111.215 10.1C111.215 9.24133 111.094 8.50867 110.851 7.902C110.609 7.29533 110.268 6.83333 109.829 6.516C109.4 6.19867 108.901 6.04 108.331 6.04C107.762 6.04 107.258 6.19867 106.819 6.516C106.39 6.83333 106.054 7.29533 105.811 7.902C105.569 8.50867 105.447 9.24133 105.447 10.1C105.447 10.9587 105.569 11.6913 105.811 12.298C106.054 12.9047 106.39 13.3667 106.819 13.684C107.258 14.0013 107.762 14.16 108.331 14.16ZM125.227 14.132V16.778H124.289V15H117.695V16.778H116.757V14.132H117.177C117.672 14.104 118.008 13.74 118.185 13.04C118.362 12.34 118.484 11.36 118.549 10.1L118.647 7.636H124.079V14.132H125.227ZM119.459 10.156C119.412 11.2013 119.324 12.0647 119.193 12.746C119.062 13.418 118.829 13.88 118.493 14.132H123.085V8.518H119.543L119.459 10.156ZM130.202 15.07C129.493 15.07 128.853 14.9113 128.284 14.594C127.715 14.2673 127.267 13.8193 126.94 13.25C126.613 12.6807 126.45 12.0367 126.45 11.318C126.45 10.5993 126.613 9.95533 126.94 9.386C127.267 8.81667 127.715 8.37333 128.284 8.056C128.853 7.73867 129.493 7.58 130.202 7.58C130.911 7.58 131.551 7.73867 132.12 8.056C132.689 8.37333 133.133 8.81667 133.45 9.386C133.777 9.95533 133.94 10.5993 133.94 11.318C133.94 12.0367 133.777 12.6807 133.45 13.25C133.133 13.8193 132.689 14.2673 132.12 14.594C131.551 14.9113 130.911 15.07 130.202 15.07ZM130.202 14.188C130.725 14.188 131.191 14.0713 131.602 13.838C132.022 13.5953 132.349 13.2547 132.582 12.816C132.815 12.3773 132.932 11.878 132.932 11.318C132.932 10.758 132.815 10.2587 132.582 9.82C132.349 9.38133 132.022 9.04533 131.602 8.812C131.191 8.56933 130.725 8.448 130.202 8.448C129.679 8.448 129.208 8.56933 128.788 8.812C128.377 9.04533 128.051 9.38133 127.808 9.82C127.575 10.2587 127.458 10.758 127.458 11.318C127.458 11.878 127.575 12.3773 127.808 12.816C128.051 13.2547 128.377 13.5953 128.788 13.838C129.208 14.0713 129.679 14.188 130.202 14.188ZM142.948 15.084C142.192 15.084 141.516 14.8833 140.918 14.482C140.33 14.0807 139.868 13.5067 139.532 12.76C139.206 12.004 139.042 11.1173 139.042 10.1C139.042 9.08267 139.206 8.20067 139.532 7.454C139.868 6.698 140.33 6.11933 140.918 5.718C141.516 5.31667 142.192 5.116 142.948 5.116C143.704 5.116 144.376 5.31667 144.964 5.718C145.562 6.11933 146.028 6.698 146.364 7.454C146.7 8.20067 146.868 9.08267 146.868 10.1C146.868 11.1173 146.7 12.004 146.364 12.76C146.028 13.5067 145.562 14.0807 144.964 14.482C144.376 14.8833 143.704 15.084 142.948 15.084ZM142.948 14.16C143.518 14.16 144.017 14.0013 144.446 13.684C144.885 13.3667 145.226 12.9047 145.468 12.298C145.711 11.6913 145.832 10.9587 145.832 10.1C145.832 9.24133 145.711 8.50867 145.468 7.902C145.226 7.29533 144.885 6.83333 144.446 6.516C144.017 6.19867 143.518 6.04 142.948 6.04C142.379 6.04 141.875 6.19867 141.436 6.516C141.007 6.83333 140.671 7.29533 140.428 7.902C140.186 8.50867 140.064 9.24133 140.064 10.1C140.064 10.9587 140.186 11.6913 140.428 12.298C140.671 12.9047 141.007 13.3667 141.436 13.684C141.875 14.0013 142.379 14.16 142.948 14.16ZM152.218 15.084C151.462 15.084 150.785 14.8833 150.188 14.482C149.6 14.0807 149.138 13.5067 148.802 12.76C148.475 12.004 148.312 11.1173 148.312 10.1C148.312 9.08267 148.475 8.20067 148.802 7.454C149.138 6.698 149.6 6.11933 150.188 5.718C150.785 5.31667 151.462 5.116 152.218 5.116C152.974 5.116 153.646 5.31667 154.234 5.718C154.831 6.11933 155.298 6.698 155.634 7.454C155.97 8.20067 156.138 9.08267 156.138 10.1C156.138 11.1173 155.97 12.004 155.634 12.76C155.298 13.5067 154.831 14.0807 154.234 14.482C153.646 14.8833 152.974 15.084 152.218 15.084ZM152.218 14.16C152.787 14.16 153.287 14.0013 153.716 13.684C154.155 13.3667 154.495 12.9047 154.738 12.298C154.981 11.6913 155.102 10.9587 155.102 10.1C155.102 9.24133 154.981 8.50867 154.738 7.902C154.495 7.29533 154.155 6.83333 153.716 6.516C153.287 6.19867 152.787 6.04 152.218 6.04C151.649 6.04 151.145 6.19867 150.706 6.516C150.277 6.83333 149.941 7.29533 149.698 7.902C149.455 8.50867 149.334 9.24133 149.334 10.1C149.334 10.9587 149.455 11.6913 149.698 12.298C149.941 12.9047 150.277 13.3667 150.706 13.684C151.145 14.0013 151.649 14.16 152.218 14.16ZM158.338 9.106C158.132 9.106 157.955 9.03133 157.806 8.882C157.666 8.73267 157.596 8.55067 157.596 8.336C157.596 8.12133 157.666 7.944 157.806 7.804C157.955 7.65467 158.132 7.58 158.338 7.58C158.543 7.58 158.72 7.65467 158.87 7.804C159.019 7.944 159.094 8.12133 159.094 8.336C159.094 8.55067 159.019 8.73267 158.87 8.882C158.72 9.03133 158.543 9.106 158.338 9.106ZM158.338 15.07C158.132 15.07 157.955 14.9953 157.806 14.846C157.666 14.6967 157.596 14.5147 157.596 14.3C157.596 14.0853 157.666 13.908 157.806 13.768C157.955 13.6187 158.132 13.544 158.338 13.544C158.543 13.544 158.72 13.6187 158.87 13.768C159.019 13.908 159.094 14.0853 159.094 14.3C159.094 14.5147 159.019 14.6967 158.87 14.846C158.72 14.9953 158.543 15.07 158.338 15.07ZM164.454 15.084C163.698 15.084 163.022 14.8833 162.424 14.482C161.836 14.0807 161.374 13.5067 161.038 12.76C160.712 12.004 160.548 11.1173 160.548 10.1C160.548 9.08267 160.712 8.20067 161.038 7.454C161.374 6.698 161.836 6.11933 162.424 5.718C163.022 5.31667 163.698 5.116 164.454 5.116C165.21 5.116 165.882 5.31667 166.47 5.718C167.068 6.11933 167.534 6.698 167.87 7.454C168.206 8.20067 168.374 9.08267 168.374 10.1C168.374 11.1173 168.206 12.004 167.87 12.76C167.534 13.5067 167.068 14.0807 166.47 14.482C165.882 14.8833 165.21 15.084 164.454 15.084ZM164.454 14.16C165.024 14.16 165.523 14.0013 165.952 13.684C166.391 13.3667 166.732 12.9047 166.974 12.298C167.217 11.6913 167.338 10.9587 167.338 10.1C167.338 9.24133 167.217 8.50867 166.974 7.902C166.732 7.29533 166.391 6.83333 165.952 6.516C165.523 6.19867 165.024 6.04 164.454 6.04C163.885 6.04 163.381 6.19867 162.942 6.516C162.513 6.83333 162.177 7.29533 161.934 7.902C161.692 8.50867 161.57 9.24133 161.57 10.1C161.57 10.9587 161.692 11.6913 161.934 12.298C162.177 12.9047 162.513 13.3667 162.942 13.684C163.381 14.0013 163.885 14.16 164.454 14.16ZM173.724 15.084C172.968 15.084 172.291 14.8833 171.694 14.482C171.106 14.0807 170.644 13.5067 170.308 12.76C169.981 12.004 169.818 11.1173 169.818 10.1C169.818 9.08267 169.981 8.20067 170.308 7.454C170.644 6.698 171.106 6.11933 171.694 5.718C172.291 5.31667 172.968 5.116 173.724 5.116C174.48 5.116 175.152 5.31667 175.74 5.718C176.337 6.11933 176.804 6.698 177.14 7.454C177.476 8.20067 177.644 9.08267 177.644 10.1C177.644 11.1173 177.476 12.004 177.14 12.76C176.804 13.5067 176.337 14.0807 175.74 14.482C175.152 14.8833 174.48 15.084 173.724 15.084ZM173.724 14.16C174.293 14.16 174.793 14.0013 175.222 13.684C175.661 13.3667 176.001 12.9047 176.244 12.298C176.487 11.6913 176.608 10.9587 176.608 10.1C176.608 9.24133 176.487 8.50867 176.244 7.902C176.001 7.29533 175.661 6.83333 175.222 6.516C174.793 6.19867 174.293 6.04 173.724 6.04C173.155 6.04 172.651 6.19867 172.212 6.516C171.783 6.83333 171.447 7.29533 171.204 7.902C170.961 8.50867 170.84 9.24133 170.84 10.1C170.84 10.9587 170.961 11.6913 171.204 12.298C171.447 12.9047 171.783 13.3667 172.212 13.684C172.651 14.0013 173.155 14.16 173.724 14.16ZM34.022 26.636V34H33.028V27.518H28.408V34H27.414V26.636H34.022ZM42.0276 27.518H39.2416V34H38.2476V27.518H35.4616V26.636H42.0276V27.518ZM42.5627 29.772H46.2307V30.64H42.5627V29.772ZM51.6991 34.07C50.9711 34.07 50.3177 33.9113 49.7391 33.594C49.1697 33.2767 48.7217 32.8333 48.3951 32.264C48.0684 31.6853 47.9051 31.0367 47.9051 30.318C47.9051 29.5993 48.0684 28.9553 48.3951 28.386C48.7217 27.8167 49.1697 27.3733 49.7391 27.056C50.3177 26.7387 50.9711 26.58 51.6991 26.58C52.3337 26.58 52.8984 26.706 53.3931 26.958C53.8971 27.2007 54.2937 27.56 54.5831 28.036L53.8411 28.54C53.5984 28.176 53.2904 27.9053 52.9171 27.728C52.5437 27.5413 52.1377 27.448 51.6991 27.448C51.1671 27.448 50.6864 27.5693 50.2571 27.812C49.8371 28.0453 49.5057 28.3813 49.2631 28.82C49.0297 29.2587 48.9131 29.758 48.9131 30.318C48.9131 30.8873 49.0297 31.3913 49.2631 31.83C49.5057 32.2593 49.8371 32.5953 50.2571 32.838C50.6864 33.0713 51.1671 33.188 51.6991 33.188C52.1377 33.188 52.5437 33.0993 52.9171 32.922C53.2904 32.7447 53.5984 32.474 53.8411 32.11L54.5831 32.614C54.2937 33.09 53.8971 33.454 53.3931 33.706C52.8891 33.9487 52.3244 34.07 51.6991 34.07ZM60.0504 26.818C60.7317 26.818 61.3384 26.972 61.8704 27.28C62.4117 27.5787 62.8317 28.0033 63.1304 28.554C63.4291 29.0953 63.5784 29.716 63.5784 30.416C63.5784 31.1347 63.4197 31.774 63.1024 32.334C62.7944 32.8847 62.3604 33.314 61.8004 33.622C61.2404 33.93 60.5964 34.084 59.8684 34.084C58.6457 34.084 57.6984 33.6547 57.0264 32.796C56.3544 31.9373 56.0184 30.752 56.0184 29.24C56.0184 27.6627 56.3171 26.454 56.9144 25.614C57.5211 24.774 58.4637 24.2047 59.7424 23.906L63.0464 23.15L63.2144 24.06L60.1064 24.774C59.0517 25.0073 58.2771 25.4227 57.7824 26.02C57.2877 26.608 57.0171 27.4807 56.9704 28.638C57.2691 28.0687 57.6844 27.6253 58.2164 27.308C58.7484 26.9813 59.3597 26.818 60.0504 26.818ZM59.8964 33.258C60.4097 33.258 60.8671 33.1413 61.2684 32.908C61.6791 32.6653 61.9964 32.3293 62.2204 31.9C62.4537 31.4707 62.5704 30.9853 62.5704 30.444C62.5704 29.9027 62.4584 29.4267 62.2344 29.016C62.0104 28.6053 61.6931 28.288 61.2824 28.064C60.8811 27.8307 60.4191 27.714 59.8964 27.714C59.3737 27.714 58.9071 27.8307 58.4964 28.064C58.0951 28.288 57.7777 28.6053 57.5444 29.016C57.3204 29.4267 57.2084 29.9027 57.2084 30.444C57.2084 30.9853 57.3204 31.4707 57.5444 31.9C57.7777 32.3293 58.0997 32.6653 58.5104 32.908C58.9211 33.1413 59.3831 33.258 59.8964 33.258ZM72.453 34.07C71.725 34.07 71.0717 33.9113 70.493 33.594C69.9237 33.2767 69.4757 32.8333 69.149 32.264C68.8223 31.6853 68.659 31.0367 68.659 30.318C68.659 29.5993 68.8223 28.9553 69.149 28.386C69.4757 27.8167 69.9237 27.3733 70.493 27.056C71.0717 26.7387 71.725 26.58 72.453 26.58C73.0877 26.58 73.6523 26.706 74.147 26.958C74.651 27.2007 75.0477 27.56 75.337 28.036L74.595 28.54C74.3523 28.176 74.0443 27.9053 73.671 27.728C73.2977 27.5413 72.8917 27.448 72.453 27.448C71.921 27.448 71.4403 27.5693 71.011 27.812C70.591 28.0453 70.2597 28.3813 70.017 28.82C69.7837 29.2587 69.667 29.758 69.667 30.318C69.667 30.8873 69.7837 31.3913 70.017 31.83C70.2597 32.2593 70.591 32.5953 71.011 32.838C71.4403 33.0713 71.921 33.188 72.453 33.188C72.8917 33.188 73.2977 33.0993 73.671 32.922C74.0443 32.7447 74.3523 32.474 74.595 32.11L75.337 32.614C75.0477 33.09 74.651 33.454 74.147 33.706C73.643 33.9487 73.0783 34.07 72.453 34.07ZM82.9557 24.2V34H81.9477V25.096H79.6377V24.2H82.9557ZM89.3583 28.134C90.0023 28.134 90.5716 28.2553 91.0663 28.498C91.5703 28.7407 91.9623 29.086 92.2423 29.534C92.5223 29.9727 92.6623 30.486 92.6623 31.074C92.6623 31.6713 92.5176 32.1987 92.2283 32.656C91.939 33.1133 91.5376 33.468 91.0243 33.72C90.5203 33.9627 89.951 34.084 89.3163 34.084C88.019 34.084 87.025 33.6593 86.3343 32.81C85.6436 31.9513 85.2983 30.7427 85.2983 29.184C85.2983 28.092 85.485 27.168 85.8583 26.412C86.2316 25.656 86.7543 25.0867 87.4263 24.704C88.0983 24.312 88.8823 24.116 89.7783 24.116C90.749 24.116 91.5236 24.2933 92.1023 24.648L91.6963 25.46C91.2296 25.152 90.595 24.998 89.7923 24.998C88.7096 24.998 87.8603 25.3433 87.2443 26.034C86.6283 26.7153 86.3203 27.7093 86.3203 29.016C86.3203 29.2493 86.3343 29.5153 86.3623 29.814C86.605 29.282 86.9923 28.8713 87.5243 28.582C88.0563 28.2833 88.6676 28.134 89.3583 28.134ZM89.2743 33.23C89.9836 33.23 90.5576 33.0387 90.9963 32.656C91.4443 32.264 91.6683 31.746 91.6683 31.102C91.6683 30.458 91.4443 29.9447 90.9963 29.562C90.5576 29.1793 89.9603 28.988 89.2043 28.988C88.7096 28.988 88.271 29.0813 87.8883 29.268C87.515 29.4547 87.221 29.7113 87.0063 30.038C86.7916 30.3647 86.6843 30.7287 86.6843 31.13C86.6843 31.5033 86.7823 31.8487 86.9783 32.166C87.1836 32.4833 87.4823 32.74 87.8743 32.936C88.2663 33.132 88.733 33.23 89.2743 33.23ZM94.5856 28.106C94.3802 28.106 94.2029 28.0313 94.0536 27.882C93.9136 27.7327 93.8436 27.5507 93.8436 27.336C93.8436 27.1213 93.9136 26.944 94.0536 26.804C94.2029 26.6547 94.3802 26.58 94.5856 26.58C94.7909 26.58 94.9682 26.6547 95.1176 26.804C95.2669 26.944 95.3416 27.1213 95.3416 27.336C95.3416 27.5507 95.2669 27.7327 95.1176 27.882C94.9682 28.0313 94.7909 28.106 94.5856 28.106ZM94.5856 34.07C94.3802 34.07 94.2029 33.9953 94.0536 33.846C93.9136 33.6967 93.8436 33.5147 93.8436 33.3C93.8436 33.0853 93.9136 32.908 94.0536 32.768C94.2029 32.6187 94.3802 32.544 94.5856 32.544C94.7909 32.544 94.9682 32.6187 95.1176 32.768C95.2669 32.908 95.3416 33.0853 95.3416 33.3C95.3416 33.5147 95.2669 33.6967 95.1176 33.846C94.9682 33.9953 94.7909 34.07 94.5856 34.07ZM100.702 34.084C99.9464 34.084 99.2697 33.8833 98.6724 33.482C98.0844 33.0807 97.6224 32.5067 97.2864 31.76C96.9597 31.004 96.7964 30.1173 96.7964 29.1C96.7964 28.0827 96.9597 27.2007 97.2864 26.454C97.6224 25.698 98.0844 25.1193 98.6724 24.718C99.2697 24.3167 99.9464 24.116 100.702 24.116C101.458 24.116 102.13 24.3167 102.718 24.718C103.316 25.1193 103.782 25.698 104.118 26.454C104.454 27.2007 104.622 28.0827 104.622 29.1C104.622 30.1173 104.454 31.004 104.118 31.76C103.782 32.5067 103.316 33.0807 102.718 33.482C102.13 33.8833 101.458 34.084 100.702 34.084ZM100.702 33.16C101.272 33.16 101.771 33.0013 102.2 32.684C102.639 32.3667 102.98 31.9047 103.222 31.298C103.465 30.6913 103.586 29.9587 103.586 29.1C103.586 28.2413 103.465 27.5087 103.222 26.902C102.98 26.2953 102.639 25.8333 102.2 25.516C101.771 25.1987 101.272 25.04 100.702 25.04C100.133 25.04 99.629 25.1987 99.1904 25.516C98.761 25.8333 98.425 26.2953 98.1824 26.902C97.9397 27.5087 97.8184 28.2413 97.8184 29.1C97.8184 29.9587 97.9397 30.6913 98.1824 31.298C98.425 31.9047 98.761 32.3667 99.1904 32.684C99.629 33.0013 100.133 33.16 100.702 33.16ZM109.972 34.084C109.216 34.084 108.539 33.8833 107.942 33.482C107.354 33.0807 106.892 32.5067 106.556 31.76C106.229 31.004 106.066 30.1173 106.066 29.1C106.066 28.0827 106.229 27.2007 106.556 26.454C106.892 25.698 107.354 25.1193 107.942 24.718C108.539 24.3167 109.216 24.116 109.972 24.116C110.728 24.116 111.4 24.3167 111.988 24.718C112.585 25.1193 113.052 25.698 113.388 26.454C113.724 27.2007 113.892 28.0827 113.892 29.1C113.892 30.1173 113.724 31.004 113.388 31.76C113.052 32.5067 112.585 33.0807 111.988 33.482C111.4 33.8833 110.728 34.084 109.972 34.084ZM109.972 33.16C110.541 33.16 111.041 33.0013 111.47 32.684C111.909 32.3667 112.249 31.9047 112.492 31.298C112.735 30.6913 112.856 29.9587 112.856 29.1C112.856 28.2413 112.735 27.5087 112.492 26.902C112.249 26.2953 111.909 25.8333 111.47 25.516C111.041 25.1987 110.541 25.04 109.972 25.04C109.403 25.04 108.899 25.1987 108.46 25.516C108.031 25.8333 107.695 26.2953 107.452 26.902C107.209 27.5087 107.088 28.2413 107.088 29.1C107.088 29.9587 107.209 30.6913 107.452 31.298C107.695 31.9047 108.031 32.3667 108.46 32.684C108.899 33.0013 109.403 33.16 109.972 33.16ZM126.867 33.132V35.778H125.929V34H119.335V35.778H118.397V33.132H118.817C119.312 33.104 119.648 32.74 119.825 32.04C120.003 31.34 120.124 30.36 120.189 29.1L120.287 26.636H125.719V33.132H126.867ZM121.099 29.156C121.053 30.2013 120.964 31.0647 120.833 31.746C120.703 32.418 120.469 32.88 120.133 33.132H124.725V27.518H121.183L121.099 29.156ZM131.843 34.07C131.133 34.07 130.494 33.9113 129.925 33.594C129.355 33.2673 128.907 32.8193 128.581 32.25C128.254 31.6807 128.091 31.0367 128.091 30.318C128.091 29.5993 128.254 28.9553 128.581 28.386C128.907 27.8167 129.355 27.3733 129.925 27.056C130.494 26.7387 131.133 26.58 131.843 26.58C132.552 26.58 133.191 26.7387 133.761 27.056C134.33 27.3733 134.773 27.8167 135.091 28.386C135.417 28.9553 135.581 29.5993 135.581 30.318C135.581 31.0367 135.417 31.6807 135.091 32.25C134.773 32.8193 134.33 33.2673 133.761 33.594C133.191 33.9113 132.552 34.07 131.843 34.07ZM131.843 33.188C132.365 33.188 132.832 33.0713 133.243 32.838C133.663 32.5953 133.989 32.2547 134.223 31.816C134.456 31.3773 134.573 30.878 134.573 30.318C134.573 29.758 134.456 29.2587 134.223 28.82C133.989 28.3813 133.663 28.0453 133.243 27.812C132.832 27.5693 132.365 27.448 131.843 27.448C131.32 27.448 130.849 27.5693 130.429 27.812C130.018 28.0453 129.691 28.3813 129.449 28.82C129.215 29.2587 129.099 29.758 129.099 30.318C129.099 30.878 129.215 31.3773 129.449 31.816C129.691 32.2547 130.018 32.5953 130.429 32.838C130.849 33.0713 131.32 33.188 131.843 33.188ZM144.589 34.084C143.833 34.084 143.156 33.8833 142.559 33.482C141.971 33.0807 141.509 32.5067 141.173 31.76C140.846 31.004 140.683 30.1173 140.683 29.1C140.683 28.0827 140.846 27.2007 141.173 26.454C141.509 25.698 141.971 25.1193 142.559 24.718C143.156 24.3167 143.833 24.116 144.589 24.116C145.345 24.116 146.017 24.3167 146.605 24.718C147.202 25.1193 147.669 25.698 148.005 26.454C148.341 27.2007 148.509 28.0827 148.509 29.1C148.509 30.1173 148.341 31.004 148.005 31.76C147.669 32.5067 147.202 33.0807 146.605 33.482C146.017 33.8833 145.345 34.084 144.589 34.084ZM144.589 33.16C145.158 33.16 145.658 33.0013 146.087 32.684C146.526 32.3667 146.866 31.9047 147.109 31.298C147.352 30.6913 147.473 29.9587 147.473 29.1C147.473 28.2413 147.352 27.5087 147.109 26.902C146.866 26.2953 146.526 25.8333 146.087 25.516C145.658 25.1987 145.158 25.04 144.589 25.04C144.02 25.04 143.516 25.1987 143.077 25.516C142.648 25.8333 142.312 26.2953 142.069 26.902C141.826 27.5087 141.705 28.2413 141.705 29.1C141.705 29.9587 141.826 30.6913 142.069 31.298C142.312 31.9047 142.648 32.3667 143.077 32.684C143.516 33.0013 144.02 33.16 144.589 33.16ZM158.283 31.424H156.323V34H155.315V31.424H149.785V30.696L154.979 24.2H156.099L151.087 30.528H155.343V28.26H156.323V30.528H158.283V31.424ZM160.047 28.106C159.841 28.106 159.664 28.0313 159.515 27.882C159.375 27.7327 159.305 27.5507 159.305 27.336C159.305 27.1213 159.375 26.944 159.515 26.804C159.664 26.6547 159.841 26.58 160.047 26.58C160.252 26.58 160.429 26.6547 160.579 26.804C160.728 26.944 160.803 27.1213 160.803 27.336C160.803 27.5507 160.728 27.7327 160.579 27.882C160.429 28.0313 160.252 28.106 160.047 28.106ZM160.047 34.07C159.841 34.07 159.664 33.9953 159.515 33.846C159.375 33.6967 159.305 33.5147 159.305 33.3C159.305 33.0853 159.375 32.908 159.515 32.768C159.664 32.6187 159.841 32.544 160.047 32.544C160.252 32.544 160.429 32.6187 160.579 32.768C160.728 32.908 160.803 33.0853 160.803 33.3C160.803 33.5147 160.728 33.6967 160.579 33.846C160.429 33.9953 160.252 34.07 160.047 34.07ZM166.163 34.084C165.407 34.084 164.731 33.8833 164.133 33.482C163.545 33.0807 163.083 32.5067 162.747 31.76C162.421 31.004 162.257 30.1173 162.257 29.1C162.257 28.0827 162.421 27.2007 162.747 26.454C163.083 25.698 163.545 25.1193 164.133 24.718C164.731 24.3167 165.407 24.116 166.163 24.116C166.919 24.116 167.591 24.3167 168.179 24.718C168.777 25.1193 169.243 25.698 169.579 26.454C169.915 27.2007 170.083 28.0827 170.083 29.1C170.083 30.1173 169.915 31.004 169.579 31.76C169.243 32.5067 168.777 33.0807 168.179 33.482C167.591 33.8833 166.919 34.084 166.163 34.084ZM166.163 33.16C166.733 33.16 167.232 33.0013 167.661 32.684C168.1 32.3667 168.441 31.9047 168.683 31.298C168.926 30.6913 169.047 29.9587 169.047 29.1C169.047 28.2413 168.926 27.5087 168.683 26.902C168.441 26.2953 168.1 25.8333 167.661 25.516C167.232 25.1987 166.733 25.04 166.163 25.04C165.594 25.04 165.09 25.1987 164.651 25.516C164.222 25.8333 163.886 26.2953 163.643 26.902C163.401 27.5087 163.279 28.2413 163.279 29.1C163.279 29.9587 163.401 30.6913 163.643 31.298C163.886 31.9047 164.222 32.3667 164.651 32.684C165.09 33.0013 165.594 33.16 166.163 33.16ZM175.433 34.084C174.677 34.084 174 33.8833 173.403 33.482C172.815 33.0807 172.353 32.5067 172.017 31.76C171.69 31.004 171.527 30.1173 171.527 29.1C171.527 28.0827 171.69 27.2007 172.017 26.454C172.353 25.698 172.815 25.1193 173.403 24.718C174 24.3167 174.677 24.116 175.433 24.116C176.189 24.116 176.861 24.3167 177.449 24.718C178.046 25.1193 178.513 25.698 178.849 26.454C179.185 27.2007 179.353 28.0827 179.353 29.1C179.353 30.1173 179.185 31.004 178.849 31.76C178.513 32.5067 178.046 33.0807 177.449 33.482C176.861 33.8833 176.189 34.084 175.433 34.084ZM175.433 33.16C176.002 33.16 176.501 33.0013 176.931 32.684C177.369 32.3667 177.71 31.9047 177.953 31.298C178.195 30.6913 178.317 29.9587 178.317 29.1C178.317 28.2413 178.195 27.5087 177.953 26.902C177.71 26.2953 177.369 25.8333 176.931 25.516C176.501 25.1987 176.002 25.04 175.433 25.04C174.863 25.04 174.359 25.1987 173.921 25.516C173.491 25.8333 173.155 26.2953 172.913 26.902C172.67 27.5087 172.549 28.2413 172.549 29.1C172.549 29.9587 172.67 30.6913 172.913 31.298C173.155 31.9047 173.491 32.3667 173.921 32.684C174.359 33.0013 174.863 33.16 175.433 33.16Z" fill="#C8CDD8"/>
<path d="M4.21875 5.50391C5.55469 4.16797 7.14844 3.5 9 3.5C10.8516 3.5 12.4336 4.16797 13.7461 5.50391C15.082 6.81641 15.75 8.39844 15.75 10.25C15.75 12.1016 15.082 13.6953 13.7461 15.0312C12.4336 16.3438 10.8516 17 9 17C7.14844 17 5.55469 16.3438 4.21875 15.0312C2.90625 13.6953 2.25 12.1016 2.25 10.25C2.25 8.39844 2.90625 6.81641 4.21875 5.50391ZM12.9727 6.27734C11.8711 5.17578 10.5469 4.625 9 4.625C7.45312 4.625 6.12891 5.17578 5.02734 6.27734C3.92578 7.37891 3.375 8.70312 3.375 10.25C3.375 11.7969 3.92578 13.1211 5.02734 14.2227C6.12891 15.3242 7.45312 15.875 9 15.875C10.5469 15.875 11.8711 15.3242 12.9727 14.2227C14.0742 13.1211 14.625 11.7969 14.625 10.25C14.625 8.70312 14.0742 7.37891 12.9727 6.27734ZM8.4375 5.75H9.5625V9.6875H12.375V10.8125H9H8.4375V10.25V5.75Z" fill="#A9AEB8"/>
</svg>
